<svg viewBox="0 0 56 56" xmlns="http://www.w3.org/2000/svg">
  <defs>
    <!-- Gradient from blue-500 to cyan-500 -->
    <linearGradient id="bgGradient" x1="0%" y1="0%" x2="100%" y2="0%">
      <stop offset="0%" style="stop-color:#3B82F6;stop-opacity:1" />
      <stop offset="100%" style="stop-color:#06B6D4;stop-opacity:1" />
    </linearGradient>
    
    <!-- Shadow filter -->
    <filter id="shadow" x="-20%" y="-20%" width="140%" height="140%">
      <feDropShadow dx="0" dy="4" stdDeviation="4" flood-color="#000000" flood-opacity="0.25"/>
    </filter>
  </defs>
  
  <!-- Rounded rectangle background with gradient and shadow -->
  <rect x="4" y="4" width="48" height="48" rx="12" ry="12" 
        fill="url(#bgGradient)" 
        filter="url(#shadow)"/>
  
  <!-- Droplets icon (Lucide React Droplets equivalent) -->
  <g fill="white" stroke="white" stroke-width="2" stroke-linecap="round" stroke-linejoin="round">
    <!-- Main large droplet -->
    <path d="M28 16 C28 16, 22 22, 22 28 C22 31.314, 24.686 34, 28 34 C31.314 34, 34 31.314, 34 28 C34 22, 28 16, 28 16 Z"/>
    
    <!-- Small droplet top left -->
    <path d="M20 12 C20 12, 17 15, 17 17 C17 18.105, 17.895 19, 19 19 C20.105 19, 21 18.105, 21 17 C21 15, 20 12, 20 12 Z"/>
    
    <!-- Small droplet top right -->
    <path d="M36 12 C36 12, 39 15, 39 17 C39 18.105, 38.105 19, 37 19 C35.895 19, 35 18.105, 35 17 C35 15, 36 12, 36 12 Z"/>
    
    <!-- Small droplet bottom left -->
    <path d="M18 36 C18 36, 15 39, 15 41 C15 42.105, 15.895 43, 17 43 C18.105 43, 19 42.105, 19 41 C19 39, 18 36, 18 36 Z"/>
    
    <!-- Small droplet bottom right -->
    <path d="M38 36 C38 36, 41 39, 41 41 C41 42.105, 40.105 43, 39 43 C37.895 43, 37 42.105, 37 41 C37 39, 38 36, 38 36 Z"/>
  </g>
</svg>